<mxfile host="app.diagrams.net" agent="Mozilla/5.0 (Windows NT 10.0; Win64; x64) AppleWebKit/537.36 (KHTML, like Gecko) Chrome/130.0.0.0 Safari/537.36 OPR/115.0.0.0" version="26.0.5">
  <diagram name="PÃ¡gina-1" id="EQY7rx08GIGifhaFdDs0">
    <mxGraphModel dx="710" dy="1524" grid="1" gridSize="10" guides="1" tooltips="1" connect="1" arrows="1" fold="1" page="1" pageScale="1" pageWidth="827" pageHeight="1169" math="0" shadow="0">
      <root>
        <mxCell id="0" />
        <mxCell id="1" parent="0" />
        <mxCell id="6GOztxUwA011YL0eF0oX-1" value="Inicio" style="ellipse;whiteSpace=wrap;html=1;" parent="1" vertex="1">
          <mxGeometry x="210" y="-20" width="120" height="70" as="geometry" />
        </mxCell>
        <mxCell id="6GOztxUwA011YL0eF0oX-2" value="Fim" style="ellipse;whiteSpace=wrap;html=1;" parent="1" vertex="1">
          <mxGeometry x="210" y="1080" width="120" height="70" as="geometry" />
        </mxCell>
        <mxCell id="3EEL4oarkJwv0TzrjT8s-3" style="edgeStyle=orthogonalEdgeStyle;rounded=0;orthogonalLoop=1;jettySize=auto;html=1;exitX=1;exitY=0.5;exitDx=0;exitDy=0;exitPerimeter=0;entryX=1;entryY=0.5;entryDx=0;entryDy=0;entryPerimeter=0;" parent="1" source="6GOztxUwA011YL0eF0oX-32" target="6GOztxUwA011YL0eF0oX-41" edge="1">
          <mxGeometry relative="1" as="geometry">
            <Array as="points">
              <mxPoint x="390" y="115" />
              <mxPoint x="390" y="1010" />
            </Array>
            <mxPoint x="480" y="610" as="targetPoint" />
          </mxGeometry>
        </mxCell>
        <mxCell id="3EEL4oarkJwv0TzrjT8s-8" value="F" style="edgeLabel;html=1;align=center;verticalAlign=middle;resizable=0;points=[];" parent="3EEL4oarkJwv0TzrjT8s-3" vertex="1" connectable="0">
          <mxGeometry x="-0.8992" y="2" relative="1" as="geometry">
            <mxPoint x="-12" y="-13" as="offset" />
          </mxGeometry>
        </mxCell>
        <mxCell id="3EEL4oarkJwv0TzrjT8s-4" style="edgeStyle=orthogonalEdgeStyle;rounded=0;orthogonalLoop=1;jettySize=auto;html=1;exitX=0.5;exitY=1;exitDx=0;exitDy=0;exitPerimeter=0;entryX=0.5;entryY=0;entryDx=0;entryDy=0;" parent="1" source="6GOztxUwA011YL0eF0oX-32" target="fUfhpWPIc3_bJqqKZRhj-27" edge="1">
          <mxGeometry relative="1" as="geometry">
            <mxPoint x="269.8900000000001" y="181.16000000000008" as="targetPoint" />
            <Array as="points">
              <mxPoint x="270" y="178" />
              <mxPoint x="270" y="178" />
            </Array>
          </mxGeometry>
        </mxCell>
        <mxCell id="6GOztxUwA011YL0eF0oX-32" value="loop == 1" style="strokeWidth=2;html=1;shape=mxgraph.flowchart.decision;whiteSpace=wrap;" parent="1" vertex="1">
          <mxGeometry x="200" y="80" width="140" height="70" as="geometry" />
        </mxCell>
        <mxCell id="fUfhpWPIc3_bJqqKZRhj-26" style="edgeStyle=orthogonalEdgeStyle;rounded=0;orthogonalLoop=1;jettySize=auto;html=1;exitX=0.5;exitY=1;exitDx=0;exitDy=0;exitPerimeter=0;entryX=0.5;entryY=0;entryDx=0;entryDy=0;" edge="1" parent="1" source="6GOztxUwA011YL0eF0oX-41" target="6GOztxUwA011YL0eF0oX-2">
          <mxGeometry relative="1" as="geometry" />
        </mxCell>
        <mxCell id="6GOztxUwA011YL0eF0oX-41" value="produto&lt;div&gt;&lt;span style=&quot;background-color: transparent; color: light-dark(rgb(0, 0, 0), rgb(255, 255, 255));&quot;&gt;valor&lt;/span&gt;&lt;/div&gt;" style="strokeWidth=2;html=1;shape=mxgraph.flowchart.display;whiteSpace=wrap;" parent="1" vertex="1">
          <mxGeometry x="220" y="980" width="100" height="60" as="geometry" />
        </mxCell>
        <mxCell id="3EEL4oarkJwv0TzrjT8s-1" style="edgeStyle=orthogonalEdgeStyle;rounded=0;orthogonalLoop=1;jettySize=auto;html=1;exitX=0.5;exitY=1;exitDx=0;exitDy=0;entryX=0.5;entryY=0;entryDx=0;entryDy=0;entryPerimeter=0;" parent="1" source="6GOztxUwA011YL0eF0oX-1" target="6GOztxUwA011YL0eF0oX-32" edge="1">
          <mxGeometry relative="1" as="geometry" />
        </mxCell>
        <mxCell id="3EEL4oarkJwv0TzrjT8s-7" value="V" style="text;html=1;align=center;verticalAlign=middle;resizable=0;points=[];autosize=1;strokeColor=none;fillColor=none;" parent="1" vertex="1">
          <mxGeometry x="275" y="148" width="30" height="30" as="geometry" />
        </mxCell>
        <mxCell id="fUfhpWPIc3_bJqqKZRhj-2" style="edgeStyle=orthogonalEdgeStyle;rounded=0;orthogonalLoop=1;jettySize=auto;html=1;exitX=0.5;exitY=1;exitDx=0;exitDy=0;entryX=0.5;entryY=0;entryDx=0;entryDy=0;" edge="1" parent="1" target="fUfhpWPIc3_bJqqKZRhj-1">
          <mxGeometry relative="1" as="geometry">
            <mxPoint x="270" y="230" as="sourcePoint" />
          </mxGeometry>
        </mxCell>
        <mxCell id="fUfhpWPIc3_bJqqKZRhj-1" value="lista += produto + &quot;\n&quot;" style="rounded=1;whiteSpace=wrap;html=1;absoluteArcSize=1;arcSize=14;strokeWidth=2;" vertex="1" parent="1">
          <mxGeometry x="215" y="280" width="110" height="50" as="geometry" />
        </mxCell>
        <mxCell id="fUfhpWPIc3_bJqqKZRhj-21" style="edgeStyle=orthogonalEdgeStyle;rounded=0;orthogonalLoop=1;jettySize=auto;html=1;exitX=1;exitY=0.5;exitDx=0;exitDy=0;exitPerimeter=0;entryX=1;entryY=0.5;entryDx=0;entryDy=0;" edge="1" parent="1" source="fUfhpWPIc3_bJqqKZRhj-4" target="fUfhpWPIc3_bJqqKZRhj-29">
          <mxGeometry relative="1" as="geometry">
            <mxPoint x="360" y="930" as="targetPoint" />
            <Array as="points">
              <mxPoint x="360" y="415" />
              <mxPoint x="360" y="905" />
            </Array>
          </mxGeometry>
        </mxCell>
        <mxCell id="fUfhpWPIc3_bJqqKZRhj-24" value="F" style="edgeLabel;html=1;align=center;verticalAlign=middle;resizable=0;points=[];" vertex="1" connectable="0" parent="fUfhpWPIc3_bJqqKZRhj-21">
          <mxGeometry x="-0.9424" y="-1" relative="1" as="geometry">
            <mxPoint y="-16" as="offset" />
          </mxGeometry>
        </mxCell>
        <mxCell id="fUfhpWPIc3_bJqqKZRhj-4" value="loop == 1" style="strokeWidth=2;html=1;shape=mxgraph.flowchart.decision;whiteSpace=wrap;" vertex="1" parent="1">
          <mxGeometry x="200" y="380" width="140" height="70" as="geometry" />
        </mxCell>
        <mxCell id="fUfhpWPIc3_bJqqKZRhj-5" style="edgeStyle=orthogonalEdgeStyle;rounded=0;orthogonalLoop=1;jettySize=auto;html=1;exitX=0.5;exitY=1;exitDx=0;exitDy=0;entryX=0.5;entryY=0;entryDx=0;entryDy=0;entryPerimeter=0;" edge="1" parent="1" source="fUfhpWPIc3_bJqqKZRhj-1" target="fUfhpWPIc3_bJqqKZRhj-4">
          <mxGeometry relative="1" as="geometry" />
        </mxCell>
        <mxCell id="fUfhpWPIc3_bJqqKZRhj-6" style="edgeStyle=orthogonalEdgeStyle;rounded=0;orthogonalLoop=1;jettySize=auto;html=1;exitX=0.5;exitY=1;exitDx=0;exitDy=0;exitPerimeter=0;entryX=0.5;entryY=0;entryDx=0;entryDy=0;" edge="1" parent="1" source="fUfhpWPIc3_bJqqKZRhj-4" target="fUfhpWPIc3_bJqqKZRhj-28">
          <mxGeometry relative="1" as="geometry">
            <mxPoint x="269.78" y="492.3600000000001" as="targetPoint" />
          </mxGeometry>
        </mxCell>
        <mxCell id="fUfhpWPIc3_bJqqKZRhj-23" value="V" style="edgeLabel;html=1;align=center;verticalAlign=middle;resizable=0;points=[];" vertex="1" connectable="0" parent="fUfhpWPIc3_bJqqKZRhj-6">
          <mxGeometry x="-0.3505" y="6" relative="1" as="geometry">
            <mxPoint x="6" y="-1" as="offset" />
          </mxGeometry>
        </mxCell>
        <mxCell id="fUfhpWPIc3_bJqqKZRhj-13" style="edgeStyle=orthogonalEdgeStyle;rounded=0;orthogonalLoop=1;jettySize=auto;html=1;exitX=0.5;exitY=1;exitDx=0;exitDy=0;exitPerimeter=0;entryX=0.5;entryY=0;entryDx=0;entryDy=0;" edge="1" parent="1" source="fUfhpWPIc3_bJqqKZRhj-7" target="fUfhpWPIc3_bJqqKZRhj-12">
          <mxGeometry relative="1" as="geometry" />
        </mxCell>
        <mxCell id="fUfhpWPIc3_bJqqKZRhj-18" value="&lt;span style=&quot;color: rgba(0, 0, 0, 0); font-family: monospace; font-size: 0px; text-align: start; background-color: rgb(251, 251, 251);&quot;&gt;%3CmxGraphModel%3E%3Croot%3E%3CmxCell%20id%3D%220%22%2F%3E%3CmxCell%20id%3D%221%22%20parent%3D%220%22%2F%3E%3CmxCell%20id%3D%222%22%20value%3D%22loop%20%3D%200%22%20style%3D%22rounded%3D1%3BwhiteSpace%3Dwrap%3Bhtml%3D1%3BabsoluteArcSize%3D1%3BarcSize%3D14%3BstrokeWidth%3D2%3B%22%20vertex%3D%221%22%20parent%3D%221%22%3E%3CmxGeometry%20x%3D%22215%22%20y%3D%22680%22%20width%3D%22110%22%20height%3D%2250%22%20as%3D%22geometry%22%2F%3E%3C%2FmxCell%3E%3C%2Froot%3E%3C%2FmxGraphModel%3E&lt;/span&gt;" style="edgeLabel;html=1;align=center;verticalAlign=middle;resizable=0;points=[];" vertex="1" connectable="0" parent="fUfhpWPIc3_bJqqKZRhj-13">
          <mxGeometry x="-0.4241" y="4" relative="1" as="geometry">
            <mxPoint as="offset" />
          </mxGeometry>
        </mxCell>
        <mxCell id="fUfhpWPIc3_bJqqKZRhj-19" value="&lt;span style=&quot;color: rgba(0, 0, 0, 0); font-family: monospace; font-size: 0px; text-align: start; background-color: rgb(251, 251, 251);&quot;&gt;%3CmxGraphModel%3E%3Croot%3E%3CmxCell%20id%3D%220%22%2F%3E%3CmxCell%20id%3D%221%22%20parent%3D%220%22%2F%3E%3CmxCell%20id%3D%222%22%20value%3D%22loop%20%3D%200%22%20style%3D%22rounded%3D1%3BwhiteSpace%3Dwrap%3Bhtml%3D1%3BabsoluteArcSize%3D1%3BarcSize%3D14%3BstrokeWidth%3D2%3B%22%20vertex%3D%221%22%20parent%3D%221%22%3E%3CmxGeometry%20x%3D%22215%22%20y%3D%22680%22%20width%3D%22110%22%20height%3D%2250%22%20as%3D%22geometry%22%2F%3E%3C%2FmxCell%3E%3C%2Froot%3E%3C%2FmxGraphModel%3EV&lt;/span&gt;" style="edgeLabel;html=1;align=center;verticalAlign=middle;resizable=0;points=[];" vertex="1" connectable="0" parent="fUfhpWPIc3_bJqqKZRhj-13">
          <mxGeometry x="-0.3574" y="2" relative="1" as="geometry">
            <mxPoint as="offset" />
          </mxGeometry>
        </mxCell>
        <mxCell id="fUfhpWPIc3_bJqqKZRhj-7" value="valor&amp;gt;0" style="strokeWidth=2;html=1;shape=mxgraph.flowchart.decision;whiteSpace=wrap;" vertex="1" parent="1">
          <mxGeometry x="200" y="580" width="140" height="70" as="geometry" />
        </mxCell>
        <mxCell id="fUfhpWPIc3_bJqqKZRhj-8" style="edgeStyle=orthogonalEdgeStyle;rounded=0;orthogonalLoop=1;jettySize=auto;html=1;entryX=0.5;entryY=0;entryDx=0;entryDy=0;entryPerimeter=0;exitX=0.5;exitY=1;exitDx=0;exitDy=0;" edge="1" parent="1" source="fUfhpWPIc3_bJqqKZRhj-28" target="fUfhpWPIc3_bJqqKZRhj-7">
          <mxGeometry relative="1" as="geometry">
            <mxPoint x="270" y="540" as="sourcePoint" />
          </mxGeometry>
        </mxCell>
        <mxCell id="fUfhpWPIc3_bJqqKZRhj-15" style="edgeStyle=orthogonalEdgeStyle;rounded=0;orthogonalLoop=1;jettySize=auto;html=1;exitX=0.5;exitY=1;exitDx=0;exitDy=0;entryX=0.5;entryY=0;entryDx=0;entryDy=0;" edge="1" parent="1" source="fUfhpWPIc3_bJqqKZRhj-12" target="fUfhpWPIc3_bJqqKZRhj-14">
          <mxGeometry relative="1" as="geometry" />
        </mxCell>
        <mxCell id="fUfhpWPIc3_bJqqKZRhj-12" value="loop = 0" style="rounded=1;whiteSpace=wrap;html=1;absoluteArcSize=1;arcSize=14;strokeWidth=2;" vertex="1" parent="1">
          <mxGeometry x="215" y="680" width="110" height="50" as="geometry" />
        </mxCell>
        <mxCell id="fUfhpWPIc3_bJqqKZRhj-14" value="valorTotal += valor" style="rounded=1;whiteSpace=wrap;html=1;absoluteArcSize=1;arcSize=14;strokeWidth=2;" vertex="1" parent="1">
          <mxGeometry x="211.25" y="780" width="117.5" height="50" as="geometry" />
        </mxCell>
        <mxCell id="fUfhpWPIc3_bJqqKZRhj-16" style="edgeStyle=orthogonalEdgeStyle;rounded=0;orthogonalLoop=1;jettySize=auto;html=1;exitX=0;exitY=0.5;exitDx=0;exitDy=0;entryX=0;entryY=0.5;entryDx=0;entryDy=0;entryPerimeter=0;" edge="1" parent="1" source="fUfhpWPIc3_bJqqKZRhj-14" target="fUfhpWPIc3_bJqqKZRhj-4">
          <mxGeometry relative="1" as="geometry" />
        </mxCell>
        <mxCell id="fUfhpWPIc3_bJqqKZRhj-20" value="V" style="text;html=1;align=center;verticalAlign=middle;resizable=0;points=[];autosize=1;strokeColor=none;fillColor=none;" vertex="1" parent="1">
          <mxGeometry x="275" y="648" width="30" height="30" as="geometry" />
        </mxCell>
        <mxCell id="fUfhpWPIc3_bJqqKZRhj-25" style="edgeStyle=orthogonalEdgeStyle;rounded=0;orthogonalLoop=1;jettySize=auto;html=1;exitX=0;exitY=0.5;exitDx=0;exitDy=0;entryX=0;entryY=0.5;entryDx=0;entryDy=0;entryPerimeter=0;" edge="1" parent="1" source="fUfhpWPIc3_bJqqKZRhj-29" target="6GOztxUwA011YL0eF0oX-32">
          <mxGeometry relative="1" as="geometry">
            <mxPoint x="217.5" y="910" as="sourcePoint" />
            <Array as="points">
              <mxPoint x="150" y="905" />
              <mxPoint x="150" y="115" />
            </Array>
          </mxGeometry>
        </mxCell>
        <mxCell id="fUfhpWPIc3_bJqqKZRhj-27" value="produto" style="shape=parallelogram;html=1;strokeWidth=2;perimeter=parallelogramPerimeter;whiteSpace=wrap;rounded=1;arcSize=12;size=0.23;" vertex="1" parent="1">
          <mxGeometry x="200" y="190" width="140" height="50" as="geometry" />
        </mxCell>
        <mxCell id="fUfhpWPIc3_bJqqKZRhj-28" value="valor" style="shape=parallelogram;html=1;strokeWidth=2;perimeter=parallelogramPerimeter;whiteSpace=wrap;rounded=1;arcSize=12;size=0.23;" vertex="1" parent="1">
          <mxGeometry x="200" y="490" width="140" height="50" as="geometry" />
        </mxCell>
        <mxCell id="fUfhpWPIc3_bJqqKZRhj-29" value="loop" style="shape=parallelogram;html=1;strokeWidth=2;perimeter=parallelogramPerimeter;whiteSpace=wrap;rounded=1;arcSize=12;size=0.23;" vertex="1" parent="1">
          <mxGeometry x="200" y="880" width="140" height="50" as="geometry" />
        </mxCell>
      </root>
    </mxGraphModel>
  </diagram>
</mxfile>
